<?xml version="1.0" encoding="UTF-8"?>
<svg id="Calque_1" xmlns="http://www.w3.org/2000/svg" version="1.1" viewBox="0 0 119.06 555.59">
  <!-- Generator: Adobe Illustrator 29.3.1, SVG Export Plug-In . SVG Version: 2.1.0 Build 151)  -->
  <defs>
    <style>
      .st0 {
        fill: #1e1e1c;
        stroke: #1e1e1c;
        stroke-miterlimit: 10;
        stroke-width: .5px;
      }
    </style>
  </defs>
  <g>
    <path class="st0" d="M26.96,194.37c-1.07.15-.98-1.11-.62-1.75l7.76-7.8c.09-.25-.04-.39-.17-.58-.64-.96-3.21-2.75-3.59-3.57-.28-.6.17-1.52.85-1.59.97-.09,3.42,3.47,4.36,3.95.2.1.21.1.41,0,.33-.17,2.48-2.4,2.44-2.64-.59-.88-4.11-3.61-4.03-4.49.07-.76.91-1.16,1.59-.85,1.02.47,2.79,3.25,3.99,3.79.3,0,2.56-2.22,2.56-2.56,0-.84-3.35-3.07-3.78-3.99-.31-.67.09-1.52.85-1.59.8-.07,1.9,1.82,2.73,2.11-.13.71-.61.51-.21,1.53.35.06.16-.39.31-.61.65-.94,1.14,1.12,1.81,1,.19-.03,2.61-2.5,2.57-2.72-.58-.9-4.11-3.66-4.03-4.49.06-.69.95-1.24,1.59-.85l3.68,3.69c.15.11.3.11.48.07.35-.09,2.15-2.07,2.4-2.53,0-.67-3.41-3.19-3.79-3.99-.44-.96.48-1.92,1.39-1.4.79.44,3.63,3.93,4.09,3.84.58-.63,4.88-4.6,4.82-4.97-.53-.46-2.68-3-3.15-3-1.01.48-3.52,3.93-4.46,3.85-.76-.07-1.16-.91-.85-1.59s3.86-3.43,3.76-3.96c-.63-.53-2.43-2.87-3.13-2.8l-3.2,3.37c-.89,1.12-2.46.03-1.93-1.1.42-.91,3.14-2.74,3.77-3.82.04-.22-2.48-2.79-2.78-2.91-.58-.21-.48.28-.77.59-.7.73-3,3.31-3.87,3.22-.75-.08-1.17-.88-.84-1.58s3.86-3.43,3.76-3.96c-.44-.41-2.56-2.84-2.92-2.77-.99.63-3.43,4-4.48,3.84-.76-.12-1.19-.88-.86-1.6s3.68-3.32,3.76-3.81l-1.75-1.9c-3.18,2.72-6.01,5.97-9.08,8.87-1.32.98-2.87-.43-2.05-1.84l8.81-8.77.21-.61c-3.11-2.64-5.85-5.77-8.8-8.6-1.12-1.19.16-3.18,1.62-2.24,1.35.86,4.73,4.53,6.14,5.92.47.46,2.65,3.24,3.14,3.15.39-.43,1.69-1.32,1.54-1.89-.18-.7-4.17-3.91-4.78-4.85-.45-1.3.6-2.1,1.73-1.31l4.81,4.79c.45-.62,2.91-2.49,2.74-3.12-.18-.7-4.17-3.9-4.78-4.85-.46-.9.54-2.07,1.44-1.44,1.65,1.03,3.16,3.5,4.68,4.53.21.14.3.25.58.17.32-.08,2.68-2.5,2.57-2.9-.17-.64-3.92-3.65-4.57-4.65-.8-1.24.27-2.32,1.51-1.51.96.62,3.28,3.2,4.21,4.17.16.17.28.37.3.62.3.08.34-.08.51-.2.27-.19,2.48-2.43,2.53-2.6.07-.28-.03-.38-.17-.58-.81-1.21-4.14-3.57-4.61-4.59-.52-1.14.56-2.09,1.61-1.4,1.44,1.66,3.49,3,4.62,4.88.3.08.34-.08.51-.2.38-.26,2.97-2.93,2.97-3.17l-5.67-5.8c-.25-.09-.39.04-.58.17-.91.61-2.59,3.03-3.37,3.38-.66.3-1.66,0-1.61-.82.06-1.04,3.19-3.31,3.85-4.32.06-.36-2.18-2.29-2.57-2.72-.49-.09-3.49,3.92-4.45,3.87-.9-.04-1.19-.87-.83-1.63.11-.24,2.19-2.3,2.62-2.79.27-.3.93-.43.96-.99,0-.38-2.06-2.33-2.56-2.56-.66,0-3.01,3.22-3.78,3.58-1.05.48-1.88-.26-1.53-1.32l3.79-3.79c.05-.18-2.18-2.52-2.46-2.67-.2-.1-.21-.1-.41,0-.93.48-2.8,3.28-3.69,3.69-.75.34-1.5-.15-1.44-1.02.07-1.23,3.2-3.02,3.71-4.29,0-.38-2.06-2.33-2.56-2.56-.66,0-3.01,3.22-3.78,3.58s-1.59.07-1.63-.83c-.05-1.06,3.98-3.84,3.87-4.45l-7.03-7.08c-.57-1.68,1.08-2.73,2.35-1.53l30.54,30.57.42.2.42-.2,30.84-30.89c1.39-.8,2.89.93,1.75,2.16l-6.73,6.77c-.08.46,3.22,3.13,3.64,3.89.56,1-.58,1.87-1.61,1.39-.86-.4-2.6-3.03-3.48-3.48-.2-.1-.21-.1-.41,0-.51.26-1.87,1.93-2.26,2.46,0,.66,3.22,3.01,3.58,3.78.31.66-.11,1.56-.82,1.64-1.26.13-3.18-3.13-4.19-3.59-.27-.12-.34-.12-.6,0-.45.21-1.87,1.91-2.24,2.43.08.48,3.23,2.9,3.56,3.61.56,1.22-.38,2.04-1.61,1.4-.71-.37-3.21-3.51-3.68-3.43-.41.47-2.39,2.08-2.39,2.54.48,1.18,3.81,3.3,3.69,4.49-.04.38-.55.89-.93.93-1.19.12-3.31-3.22-4.49-3.69-.46,0-2.07,1.97-2.54,2.39-.09.52,3.24,3.08,3.56,3.76.56,1.22-.38,2.04-1.61,1.4-.74-.39-3.2-3.52-3.68-3.43-.73,1-5.43,4.91-5.63,5.65-.17.64,2.67,2.86,3.15,3.53,1.03-.75,4.56-5.09,5.52-5.09.54,0,1.11.57,1.11,1.11,0,.96-4.34,4.49-5.09,5.52.61.41,2.29,2.61,2.8,2.74.28.07.38-.03.58-.17,1.14-.77,4.02-4.65,5.12-4.72.54-.03,1.1.56,1.06,1.09-.11,1.29-4.12,4.15-4.83,5.39-.05.53,2.3,2.83,2.56,2.9.28.07.38-.03.58-.17,1.22-.82,3.55-4.12,4.59-4.61.77-.36,1.65.23,1.62,1.02-.02.62-3.76,4.16-4.47,4.92-.39.41-.92.09-.43.81.24.36,2.52,2.56,2.76,2.56.18,0,.29-.11.42-.2,1.22-.81,3.56-4.14,4.6-4.61.95-.44,2.02.7,1.42,1.59-1.68,1.47-3.06,3.42-4.9,4.65-.15.22,1.59,2.38,2.15,1.64l8.57-8.6c1.24-1,2.89.3,2.12,1.71-2.86,3.18-6.24,5.96-8.97,9.22,2.7,3.15,5.9,5.97,8.8,8.99,1.14,1.21-.35,2.96-1.75,2.16l-8.77-8.81c-.59-.67-2.25,1.27-2.13,1.71.17.63,3.16,2.84,3.63,3.75.41.79-.02,1.7-.89,1.69-1.04,0-3.36-3.42-4.5-3.88-.26,0-2.67,2.34-2.74,2.6-.07.28.03.38.17.58.65.97,3.82,3.15,3.66,4.24-.07.47-.61.95-1.09.95-1.04,0-3.36-3.42-4.5-3.88-.26,0-2.67,2.34-2.74,2.6-.07.28.03.38.17.58.59.87,3.07,2.65,3.38,3.37.33.76.16,1.82-.81,1.82s-3.13-3.04-4.08-3.68c-.21-.14-.3-.25-.58-.17-.26.07-2.6,2.48-2.6,2.74.46,1.16,4.03,3.51,3.86,4.65-.07.47-.61.95-1.09.95-1.04,0-3.36-3.42-4.5-3.88-.47,0-2.62,2.53-3.15,3-.07.41,4.31,4.25,4.79,4.98,1.11-.43,3.66-4.08,4.66-4.04.5.02,1.05.39,1.13.91.17,1.16-3.55,3.64-4.06,4.86.57.34,2.15,2.45,2.73,2.32.28-.06.51-.63.95-.58.03.74.48,1.17,1.23,1.02.19-.82-.64-.97-.61-1.84.53-.56,1.68-2.03,2.3-2.3.95-.41,1.77.09,1.58,1.17-.16.93-3.46,3.17-3.9,4.31-.06.35,2.26,1.92,2.26,2.55.2.05.27-.02.41-.1,1.05-.58,3.37-4.14,4.55-3.96.7.11,1.15.97.87,1.6-.43.93-3.3,2.92-3.98,4l2.58,2.53c1.41-.66,3.95-4.9,5.7-3.89.35.2,2.22,2.19,2.14,2.57-.18.91-1.18-.52-1.53-.52-.4,0-.66.65-1.12.63-.29.39,1.53,1.22.51,1.83-.91-.15-1.09-1.71-2.03-1.42-.55.17.05.81.09,1.22-.2-.06-.45-.17-.61-.2.14-.52-.34-.35-.41-.41-.06-.05.19-.35-.3-.42-.77-.11-.44.3-.52.42-.05.07-.18.14-.2.2-.01.04-.2.08-.22.32-.03.34.19.42.22.5.05.17.12.26.2.41.11.19.03.53.4.72,1.12.55,1.52-.59,1.43-1.53.18.05.28.15.41.2l.2.61c-.24.6-1.44,1.43-1.43,1.53,0,.23,1.09,1.58,1.32,1.52.96-.65,3.44-3.9,4.35-4.05.67-.11,1.36.58,1.25,1.25-.05.35-1.29,1.71-1.6,1.99-.09.08-.55-.23-.41.41-.13,0-.34.03-.41,0-.22-.11-.55-.97-1.43-.61.06.4-.09.97-.01,1.32.07.32.95-.28.42.72-.44.32-.63.31-.21.93l7.62,7.71c.52,1.8-.89,2.71-2.4,1.58-4.07-3.04-7-7.93-11.32-10.75-.27-.17-1.47-1.28-1.66-1.1-.02.58,1.16,1.39,1.22,1.53.21.49-.2.72-.61.41-.17-.12-2.17-2.72-2.21-2.9-.24-.87.99-.46.79-.99l-17.24-17.06c-10.27,10.25-20.57,20.46-30.79,30.76-.23.23-.6.26-.62.29-.76-.44-.54-1.52-1.64-1.22.3.4.45.52.61,1.02v.02ZM75.27,143.75c1.14-1.15,3.38-2.8,4.23-4.05.12-.18.29-.28.1-.52l-20.07-20.02-20.11,20.12,20.14,20.14.42-.2,15.29-15.48h0ZM84.4,175.56c.47,1.35-1.05,1.43-1.02,1.53.21.83,2.65-.85,1.02-1.53Z"/>
    <path class="st0" d="M54.35,7.34h3.78s.31-.28.31-.31V1.92c0-.77,2.04-.77,2.04,0v5.11s.28.31.31.31h3.47s.31-.28.31-.31V2.12c0-1.1,2.04-.93,2.04-.2v7.46h-6.13v3.37l9.71,7.87c.17.12.31.29.31.51,0,.7-8.49,9.03-9.39,10.47-.09.35.98,1.53,1.3,1.9,1.88,2.17,4.2,4.23,6.03,6.44.47.57.99,1.01.62,1.73l.82.11-8.81,9.38,2.46,2.27c.24.77-.56.37-.81.82-.38.67.88-.06.96-.07.37-.05.67.25,1.08.08.82-.35,2.93-3.45,3.8-3.59s1.12.46.81,1.23l-3.31,3.13c-.38.45-.21.88.14,1.27l2.76,2.56c1.14-.45,3.29-3.7,4.3-3.71.65,0,.81.29.68.89-.16.8-3.05,3.07-3.63,3.96-.04.25,2.71,3.04,3.19,3.32.51.08,2.96-3.07,3.63-3.46s1.32-.35,1.31.52c-.01.95-3.33,3.07-3.61,4.26.02.36,2.08,2.12,2.53,2.59.38.39.2.97,1.02.42.93-.62,2.92-3.49,3.87-3.5.63,0,.83.29.67.89-.19.74-2.7,2.8-3.37,3.48-.13.15-.27.43-.23.62.11.5,3.21,3.01,3.73,3.82.72,1.12-.27,2.31-1.43,1.63l-21.85-21.89-.39-.18-22.09,22.07c-1.07.65-2.17-.29-1.65-1.44.43-.95,3.31-2.9,3.97-4.02.09-.52-3.24-3.06-3.56-3.76-.3-.65-.16-1.25.61-1.24,1.04.02,3.02,3.11,3.99,3.61.2.1.21.1.41,0,.26-.14,3.09-3.03,3.05-3.25-.54-.88-3.55-3.15-3.67-3.92-.1-.61.08-.94.72-.93.96.01,2.94,2.89,3.88,3.51.28.19.35.19.66.05.2-.09,2.94-3,2.9-3.21-.54-.92-4.34-3.59-3.58-4.64.69-.95,1.52.49,1.82.76.45.39,2.87,2.75,3.07,2.71l3.18-3.33c-.54-.88-3.55-3.15-3.67-3.92-.1-.61.08-.94.72-.93,1,.01,3.06,3.11,4.11,3.69l3.54-3.39-8.78-9.17,8.78-10.18-9.39-10.47.31-.52,9.52-7.85c.32-.43.34-3.38-.11-3.38h-5.72s-.31-.28-.31-.31V2.11c0-.93,2.25-1.16,2.25,0v5.23ZM54.26,24.59c1.59,1.78,3.26,3.5,4.78,5.34l.51.3,7.86-9.06-8.22-6.45c-.88,1.11-7.5,5.73-7.68,6.46-.16.61,2.24,2.84,2.75,3.42h0ZM64.98,38.21c-.44.04-.73.03-1.14-.19-1.26-.72-2.74-3.44-4.07-4.31-.2-.13-.35-.25-.61-.21-.96,1.14-1.96,2.31-2.97,3.4-.44.47-.68.57-1.23,1.21s-3.2,3.27-3.05,3.85l7.62,7.49c.92-1.27,7.23-6.6,7.47-7.49.19-.72-2.55-2.69-2.44-3.43.03-.2.51.04.42-.31h0Z"/>
    <path class="st0" d="M58.64,266.01c-.1-.35-3.83-3.03-3.88-3.27-.11-.49.64-.34.61-.71l-1.62-.1c-.59-.56-5.15-3.96-5.15-4.29.02-1,8.47-9.08,9.41-10.66l-8.97-10.16,8.96-9.2c-.5-.46-3.17-3.45-3.53-3.39-.93.59-3.28,3.71-4.15,3.82-.21.03-.46-.1-.66-.18l.03-1.15c1.14-1.12,2.28-2.24,3.49-3.3.2-.17.19-.24.1-.49-.12-.31-3.09-3.23-3.31-3.19-1,.61-3.09,3.54-4.01,3.79-.45.12-.78-.23-.83-.65-.12-1.04,3.21-3.26,3.69-4.28,0-.48-2.72-2.8-3.2-3.36-.12-.02-1.57,1.21-1.77,1.41-.18.18-.12.46-.2.54-.55.53-2.16,2.22-2.8,1.82-1.05-.65.43-1.81.94-2.35.33-.33.58-.61.89-.93.46-.48,1.46-.88,1.44-1.64,0-.22-2.57-3.13-2.86-3.28-.2-.1-.21-.1-.41,0-.91.47-2.84,3.33-3.69,3.7s-1.32-.39-.82-1.25c.68-1.17,2.87-2.37,3.49-3.67,0-.68-3.61-3.36-3.99-4.19-.4-.87.2-1.46,1.02-1.63l22.49,22.29.61-.21,21.66-21.68c.62-.72,1.74-.33,1.9.56.21,1.12-3.61,3.7-4.05,4.85,0,.66,3.26,3.03,3.59,3.79.38.85-.63,1.57-1.32.9l-3.58-3.56c-.45.6-3.18,2.87-3.18,3.37.44,1.1,3.71,3.31,3.68,4.3-.02.66-.6.77-1.13.52-1.03-.48-3.14-3.7-4.03-3.47-.39.1-2.68,2.62-3.01,3.15,0,.66,3.22,3.01,3.58,3.78.4.86-.43,1.42-1.18,1.02-.59-.32-3.39-3.75-3.72-3.67-1.04,1.12-2.36,2.1-3.19,3.37,0,.66,3.22,3.01,3.58,3.78s-.38,1.39-.91,1.13c-.74-.37-3.32-3.69-3.82-3.78-.58.42-3.41,2.96-3.53,3.4-.18.67,1.71,1.92,2.16,2.38,1.8,1.86,3.44,3.63,5.28,5.46.19.19,1.33,1.05,1.35,1.14l-9,10.49,9.58,10.51c-.95,1.25-10,7.76-10,8.41v3.17h5.83s.31.28.31.31v5.72c0,.17.29.41.17.97s-.81,1.33-1.46,1.14c-.16-.05-.76-.64-.76-.69v-5.21h-4.09v5.01c0,1.12-2.04,1.02-2.04.41v-5.42h-3.99s-.31.28-.31.31v3.47c0,.09.22.37.2.79-.09,1.91-2.25,1.47-2.25.44v-6.95s.28-.31.31-.31h6.03c-.15-.86.21-2.43,0-3.17l.02.02ZM51.91,236.69l7.85,8.57,7.44-8.31-7.46-7.61-7.83,7.36h0ZM61.3,262.64c1.76-1.44,4.45-3.25,5.93-4.8.17-.18.41-.33.41-.62,0-.58-7.02-7.41-7.78-8.58l-.59-.07-7.79,8.86c.09.38,4.21,3.06,4.6,3.78.36.66-.27.19-.31.61,1.54-.22,2.65,1.4,3.79,2.25h.28c.04-.32.4-.63.63-.81.26-.21.55-.39.82-.61h0Z"/>
    <path class="st0" d="M24.92,108.52c.77.46,1.36,1.22,2.25.82.04.64-.05,1.6-.43,2.12-.28.39-.78.45-1.17.87-1.13,1.19-2.24,4.3-3.29,5.3-.59.57-.94-.08-.94,1.51l-12.57,20.16,17.96,29.06-.44,1.01c-2.57,1.31-4.94,3.57-7.43,4.93-.23.13-.58.38-.82.4-.84.07-1.4-1.05-.99-1.79.32-.58,5.05-3.26,6.01-4,.36-.28.88-.66.81-1.16-.05-.34-1.31-2.2-1.68-2.17-.92.09-5.27,3.8-6.53,4.31-.88.46-2.05-.03-1.75-1.12.22-.81,6.22-4.37,7.33-5.06.1-.14-1.39-2.63-1.76-2.84-.55-.09-6.29,4.62-7.52,4.68-.88,0-1.22-1.11-.74-1.74l7.15-5.07-12.05-19.43,12.04-19.46.02-.28-7.31-4.75c-.3-1.28.34-1.88,1.6-1.5,1.51.46,4.54,3.34,6.26,4.17.28.13.53.32.87.22.06-.79,1.63-2.08,1.2-2.81l-6.69-4.45c-.94-.86,0-2.36,1.2-1.82l6.84,4.59,1.75-2.85-6.75-4.39c-.94-.9-.31-2.27,1.04-1.87.66.2,3.6,2.36,4.44,2.92.37.25.74.45,1.07.68.29.19.45.47,1.02.82h0Z"/>
    <path class="st0" d="M96.05,168.82c.05,0,.13.18.2.2.26.41.06.77,1.02.61.92.99,5.02,2.67,5.09,3.99.05.94-1.13,1.09-1.81.81-.32-.13-5.1-3.34-5.32-3.57-.38-.4-.56-1.24-.81-1.74.08-.15.29.03.4.1.04.1.03.24.11.4.06.12.23.15.3.21.82.77,1.18.46.41-.41-.02-.09-.2-.17-.2-.2-.1-.47.15-.51.61-.41h0Z"/>
    <path class="st0" d="M93.8,166.36c4.74-8.56,10.66-16.67,15.62-25.16.29-.5.97-1.39.94-1.91-.03-.44-2.34-4.08-2.78-4.8-3.97-6.55-8.17-12.97-12.18-19.5-.68-1.11-2.91-3.82-2.84-4.95.02-.29.06-.54.31-.72l7.73-5.15c1.19-.6,2.12.52,1.52,1.62-.85.72-6.72,4.14-6.86,4.7-.1.4,1.37,2.75,1.68,2.7l6.87-4.59c1.27-.39,1.94,1.13.93,1.96l-6.62,4.32c-.19.32,1.23,3.31,2.01,2.73l6.5-4.35c.9-.25,1.88.17,1.6,1.19-.24.88-5.92,4.04-6.97,4.89l-.3.52,11.7,18.76.16,1.05-11.7,18.77c-.5.9.2.76.74,1.2.3.24.48.38.74.58l-.41,1.02c.89-.39.47,0,.81.31.28.26.81.38.72.91l-1.03-1.02c-.31,1.43-.5.15-.85.03-.29-.1-.69.03-.89-.03-.52-.16-.91-.51-1.43-.61,0,.56-1.5,2.27-1.44,2.55s.86.37,1.1.54c.35.24.47.72.84,1,.95.73,4.58,2.75,5.02,3.36.27.37.29.94.09,1.34-.82,1.66-4.03-1.78-4.96-2.01-1.15-.29-.84,1.43-2.46-.79-.64-.88-.7-2.22-1.47-.37,1.87.6-.02.85.2,1.94.48.08.84-.67,1.3-.58,1.12.22.12,1.36-.69,1.4-.1-.05-.57-.13-.82-.2-.05-.08-.15-.13-.2-.2-.16-.23-.06-.5-.46-.68-.33-.15-.82-.13-1.17-.34,0,.13-.03.3,0,.41-.27-.29-.41-.7-.82-.61.09.6.26,1.04,0,1.63-.07.05-.84-.31-1.02-.41-.11-.39.16-.74.2-1.02.53.14.34-.31.53-.59.18-.26.7-.21.49-.84h.02ZM99.11,167.18l-.92-1.22c-.1.27.62,1.53.92,1.22Z"/>
    <path class="st0" d="M75.88,87.13l-15.7,15.88c-.36.29-.89.29-1.25,0l-16.24-16.26c-1.45-.44-8.66.33-9.35-.36-.46-.46-.27-1.7.46-1.79,1.98-.35,7.23.56,8.76-.23,1.19-.62,3.82-3.79,4.93-4.88,3.53-3.47,7.08-6.92,10.62-10.43.25-.26.28-.57.32-.91.35-2.96-.28-6.57,0-9.61.41-1.37,2.02-1.15,2.23.21.34,2.16.01,6,.02,8.38,0,.73-.5,1.29.29,1.94l15.36,15.3c1.23.63,2.85,0,4.06,0,.48,0,.93.22,1.42.23.93,0,2.91-.29,3.57.11.72.43.85,1.23.14,1.74-.75.54-7.06,0-8.61.18-.43.05-.73.22-1.04.49h0ZM45.22,83.86c-.18.61-1.69,1.43-1.41,1.97l15.75,15.54,15.83-15.67-15.83-16.01-14.33,14.17h0Z"/>
    <path class="st0" d="M51.9,203.36c-3.09-3.01-6.17-6.03-9.2-9.09-2.59-.53-6.21.35-8.68-.11-1.24-.23-1.34-1.98.21-2.23,2.51-.41,5.86.37,8.47-.12l16.5-16.42c.33-.13.52,0,.78.16.38.22,2.38,2.24,2.88,2.74,4.51,4.43,8.78,9.16,13.36,13.52,2.69.37,5.61-.13,8.28.1,1.82.16,1.95,1.9.56,2.21-2.14.48-6.88-.52-8.63.16-.23.09-1.64,1.44-1.95,1.73-.99.94-1.99,2.22-2.95,3.17-3.72,3.68-7.69,7.22-11.04,11.23-.31,2.99.39,6.72,0,9.61-.18,1.37-1.69,1.16-2.05,0l-.05-9.97c-.65-1.08-5.48-5.06-5.48-5.87,0-.18.48-.6,0-.93-.26-.18-.71.15-1.02.11h.01ZM74.51,194.09c.28-.28,1.01-.82.8-1.15l-15.77-15.72-15.82,15.83,15.86,15.85.26-.05c.45-.45,2.86-3.27,3.14-3.39.34-.14.72.23.78.16l.19-1.14c3.55-3.44,7.08-6.89,10.57-10.38h-.01Z"/>
    <path class="st0" d="M112.26,148.24c-.57.88-2.18,5.51-3.05,2.38l7.07-11.34-7.01-11.2c-.37-.35.32-1.1.6-1.15.48-.08,1.45,1.54,1.71,1.92,2.23,3.32,4.12,6.9,6.34,10.24.08.61-1.46,2.92-1.88,3.62-1.15,1.9-2.61,3.71-3.78,5.52h0Z"/>
    <path class="st0" d="M72.27,30.57c.7-.69.75-2.46.92-2.56s1.07-.11,1.22.09c1.08,1.47-1.65,3.84-1.65,4.07s2.98,2.85,1.55,4c-1.25,1.01-1.26-.94-1.44-1.46-.73-2.09-3.78-2.46-4.85-.34-.26.52-.48,2.89-1.5,2s.37-3.53,1.34-4.21c-.95-.45-2.34-3.46-1.44-4.1,1.17-.84,1.27,1.41,1.56,1.94.85,1.55,3.06,1.79,4.31.56h-.02Z"/>
    <path class="st0" d="M46.86,247.99c-.78.78-.56,2.79-1.6,2.8-1.69.01-.07-3.77.91-4.22-.63-.84-2.45-3.25-1.33-4.18s1.29,1.32,1.5,1.8c.81,1.86,3.35,2.01,4.55.36.45-.62.71-3.53,1.86-2.06,1.15,1.47-1.49,3.73-1.43,4.08.03.2.77.74.98,1.08.32.51,1.04,2.43.45,2.85-1.34.94-1.4-1.58-1.88-2.23-.89-1.2-2.95-1.31-3.99-.27h-.02Z"/>
    <path class="st0" d="M51.09,32.47c.98.18,2.24,3.24,1.43,3.81-1.18.83-1.19-.77-1.4-1.28-1.09-2.59-3.92-2.89-5.05-.26-.31.73-.21,2.1-1.33,1.53-1.61-.81,1.24-3.84,1.24-4.09,0-.31-1.01-1.17-1.27-1.8-.29-.71-.86-2.42.35-2.41,1.05,0,.78,1.74,1.53,2.58.79.89,2.17,1.07,3.21.55.15-.07,1.34-.98,1.38-1.06.1-.17-.2-3.06,1.35-1.96.84.59-.57,3.68-1.44,4.11v.29h0Z"/>
    <path class="st0" d="M72.97,246.68s.59.32.78.59c.59.82,1.63,3.6.11,3.5-1.05-.06-.47-2.58-2.23-3.27s-3.06.03-3.69,1.65c-.29.75.02,1.99-1.33,1.33-.99-.49.29-2.86.82-3.48.27-.32.74-.18.61-.6-.92-.49-2.73-3.76-1.28-4.17,1.21-.34.99,1.07,1.24,1.76.75,2.12,3.9,2.31,4.85.26.28-.59.33-2.47,1.33-1.95,1.26.65-.24,3.56-1.22,4.11-.03.09-.02.19.01.28h0Z"/>
    <path class="st0" d="M1.64,140.39c-.08-.06-.44-1.04-.4-1.26.06-.31,1.61-2.68,1.92-3.2,1.74-2.86,3.68-5.62,5.39-8.51.47-.53,1.54-.47,1.44.4l-6.8,11.02c-.31.33.14.95-.03,1.17-.13.17-1.4.48-1.53.38h0Z"/>
    <path class="st0" d="M9.5,149.89c.97,1.54-.08,2.28-.95,1.41-.15-.15-1.76-2.7-1.8-2.86-.11-.44.54-.85.38-1.07-.04-.05-.96-.33-1.16-.48-1.35-1.07-2.43-4.27-3.73-5.59-.2-.75,1-1.2,1.51-.68,1.55,2.76,3.4,5.35,5.02,8.06.26.44.47.81.73,1.21h0Z"/>
    <path class="st0" d="M48.57,249.59c1.54-.24,1.85,2.33.14,2.42-1.31.07-1.62-2.2-.14-2.42Z"/>
    <path class="st0" d="M69.82,26.8c1.55-.48,2.34,1.45,1.04,2.06-1.76.83-2.32-1.66-1.04-2.06Z"/>
    <path class="st0" d="M48.16,35.38c1.55-.45,2.13,1.98.68,2.33s-2-1.94-.68-2.33Z"/>
    <path class="st0" d="M69.74,251.74c-1.11-.91.1-2.45,1.11-2.04,1.84.76.26,3.16-1.11,2.04Z"/>
    <path class="st0" d="M69.53,35.6c.85-.81,2.56.36,1.8,1.49-1.09,1.63-3.02-.32-1.8-1.49Z"/>
    <path class="st0" d="M47.86,242.97c-.81-.81.1-2.7,1.5-1.8,1.53.98-.32,2.98-1.5,1.8Z"/>
    <path class="st0" d="M47.94,26.79c1.91-.65,2.23,1.8.94,2.18-1.55.45-1.93-1.84-.94-2.18Z"/>
    <path class="st0" d="M71.3,241.4c.31.5-.75.97-1.11,1.21-1.01.67-.98-1.44.2-1.45.16,0,.89.19.92.23h0Z"/>
    <path class="st0" d="M60.48,138.36h4.91s-.08.61.03.79c.12.18,1.5.33,1.61.24l-.2-1.02c.81.11,2.72-.43,2.87.73.12.93-.46,1.37-1.34,1.33-.48-.02-.74-.42-1.01-.42-.24,0-.55.36-1.01.42-.92.11-4.39-.5-4.72-.02-.17.25-.05.89-.32,1.32-.15.24-.8.54-.8.63v6.64c0,.1-1.18.76-1.74.21-.89-.86.18-7.24-.13-8.77-.34-.54-6.96.2-8.24-.03-1.06-.2-1.36-1.81-.2-2.03,1.93-.37,4.91.26,6.96,0,.51-.06,1.42-1.07,1.52-1.55.14-.72-.19-1.36-.21-2.03-.02-.95-.15-4.78.23-5.31.44-.62,1.72-.43,1.82.4v8.48h-.03Z"/>
    <path class="st0" d="M52.38,143.34c1.76-1.78,4.62.45,3.29,2.58-1.72,2.76-5.31-.54-3.29-2.58Z"/>
    <path class="st0" d="M63.62,143.34c2.11-2.13,5.11,1.34,2.8,3.11-2.26,1.73-4.42-1.48-2.8-3.11Z"/>
    <path class="st0" d="M64.51,131.86c3.03-.7,3.63,3.49,1.14,4-2.9.59-3.5-3.45-1.14-4Z"/>
    <path class="st0" d="M52.1,132.64c.11-.08.9.34,1.02.21.19-.2-.44-1.42,1.49-.98,2.8.64.92,5.53-1.89,3.73-.83-.53-1.17-2.57-.62-2.96Z"/>
    <path class="st0" d="M62.05,83.04c2.85,2.85-.91,7.98-4.53,5.45-4.31-3,.99-8.99,4.53-5.45Z"/>
    <path class="st0" d="M59,189.5c4.63-.64,5.53,6.61.95,7.1s-5.42-6.48-.95-7.1Z"/>
  </g>
  <g>
    <path class="st0" d="M26.75,470.86c-1.09.15-1-1.12-.63-1.77l7.86-7.9c.1-.26-.04-.4-.17-.59-.65-.97-3.26-2.79-3.64-3.62-.28-.61.17-1.55.86-1.61.98-.09,3.47,3.52,4.42,4.01.2.1.21.1.41,0,.34-.18,2.51-2.44,2.47-2.68-.59-.9-4.17-3.66-4.09-4.55.07-.77.93-1.18,1.61-.86,1.03.48,2.83,3.3,4.04,3.84.31,0,2.59-2.25,2.59-2.59,0-.86-3.4-3.11-3.83-4.05-.32-.68.09-1.54.86-1.61.81-.07,1.93,1.85,2.77,2.14-.13.72-.62.51-.21,1.55.36.06.16-.4.31-.61.66-.95,1.16,1.13,1.83,1.01.19-.03,2.64-2.53,2.6-2.75-.58-.91-4.16-3.71-4.09-4.55.06-.7.96-1.26,1.61-.86l3.73,3.74c.15.11.31.12.48.07.35-.09,2.18-2.1,2.43-2.57,0-.68-3.46-3.23-3.84-4.04-.45-.97.49-1.94,1.41-1.42.8.45,3.68,3.98,4.15,3.9.59-.64,4.95-4.66,4.88-5.03-.54-.47-2.72-3.04-3.2-3.04-1.02.48-3.57,3.99-4.53,3.9-.77-.07-1.18-.93-.86-1.61s3.91-3.48,3.82-4.02c-.63-.54-2.47-2.91-3.17-2.84l-3.25,3.41c-.9,1.13-2.49.04-1.96-1.12.43-.93,3.18-2.78,3.82-3.87.04-.22-2.51-2.83-2.82-2.95-.58-.22-.48.29-.78.59-.71.74-3.04,3.35-3.92,3.26-.76-.08-1.19-.89-.85-1.6s3.91-3.48,3.82-4.02c-.45-.41-2.6-2.88-2.96-2.81-1,.64-3.47,4.05-4.54,3.89-.78-.12-1.21-.89-.87-1.62s3.73-3.36,3.82-3.87l-1.77-1.93c-3.22,2.76-6.09,6.05-9.2,8.99-1.34,1-2.9-.44-2.07-1.87l8.93-8.89.21-.62c-3.15-2.68-5.93-5.85-8.93-8.72-1.14-1.21.16-3.22,1.65-2.27,1.36.88,4.79,4.59,6.23,6,.48.47,2.69,3.28,3.18,3.2.4-.44,1.71-1.33,1.56-1.91-.18-.7-4.23-3.96-4.85-4.92-.46-1.32.61-2.13,1.75-1.33l4.87,4.85c.46-.62,2.95-2.52,2.78-3.17-.19-.71-4.23-3.95-4.85-4.91-.47-.91.55-2.1,1.46-1.46,1.67,1.05,3.2,3.55,4.74,4.59.21.14.3.25.59.17.33-.09,2.72-2.53,2.61-2.94-.17-.64-3.98-3.7-4.63-4.71-.81-1.26.27-2.35,1.53-1.53.97.62,3.33,3.24,4.27,4.23.17.18.29.38.3.62.3.08.34-.08.52-.2.28-.19,2.52-2.46,2.56-2.64.08-.29-.03-.38-.17-.59-.82-1.23-4.2-3.62-4.67-4.66-.53-1.16.57-2.12,1.64-1.42,1.46,1.69,3.54,3.04,4.69,4.94.3.08.34-.08.52-.2.38-.26,3.01-2.97,3.01-3.22l-5.75-5.88c-.26-.1-.4.04-.59.17-.92.62-2.63,3.07-3.41,3.43-.67.31-1.68.01-1.63-.83.06-1.05,3.24-3.35,3.9-4.38.06-.36-2.21-2.33-2.6-2.75-.49-.09-3.54,3.97-4.51,3.92-.91-.04-1.2-.88-.84-1.66.11-.24,2.22-2.34,2.66-2.83.27-.31.94-.43.97-1.01,0-.39-2.09-2.36-2.6-2.6-.67,0-3.05,3.27-3.84,3.63-1.07.49-1.91-.26-1.55-1.34l3.84-3.84c.05-.18-2.21-2.56-2.49-2.7-.2-.1-.21-.1-.41,0-.94.48-2.83,3.33-3.74,3.75-.76.35-1.52-.15-1.46-1.04.08-1.25,3.25-3.06,3.76-4.35,0-.38-2.09-2.36-2.6-2.6-.67,0-3.05,3.27-3.84,3.63s-1.61.07-1.66-.84c-.05-1.08,4.03-3.89,3.92-4.51l-7.13-7.18c-.58-1.7,1.09-2.77,2.38-1.55l30.97,31,.42.2.42-.2,31.27-31.31c1.41-.81,2.93.94,1.77,2.19l-6.82,6.87c-.08.46,3.26,3.17,3.69,3.94.57,1.02-.59,1.89-1.63,1.41-.87-.4-2.63-3.07-3.53-3.53-.2-.1-.21-.1-.41,0-.52.27-1.9,1.96-2.29,2.5,0,.67,3.27,3.05,3.63,3.84.31.67-.11,1.59-.83,1.66-1.27.13-3.23-3.17-4.24-3.64-.27-.13-.34-.13-.61,0-.46.21-1.9,1.94-2.27,2.47.09.49,3.28,2.94,3.61,3.66.57,1.23-.39,2.07-1.63,1.42-.72-.38-3.25-3.56-3.73-3.48-.42.47-2.42,2.11-2.42,2.58.48,1.19,3.86,3.34,3.74,4.55-.04.38-.56.91-.95.95-1.21.12-3.36-3.26-4.55-3.74-.46,0-2.1,2-2.58,2.42-.09.53,3.29,3.12,3.61,3.81.57,1.23-.39,2.07-1.63,1.42-.75-.39-3.25-3.56-3.73-3.48-.74,1.01-5.51,4.98-5.71,5.73-.17.65,2.71,2.9,3.19,3.58,1.04-.76,4.63-5.16,5.59-5.16.55,0,1.13.58,1.13,1.13,0,.97-4.4,4.55-5.16,5.59.62.41,2.33,2.64,2.84,2.78.29.08.38-.03.59-.17,1.16-.78,4.07-4.72,5.19-4.78.54-.03,1.12.57,1.07,1.11-.11,1.3-4.18,4.2-4.9,5.47-.05.54,2.33,2.87,2.6,2.94.29.08.38-.03.59-.17,1.24-.83,3.6-4.18,4.66-4.67.78-.36,1.67.24,1.64,1.03-.02.63-3.81,4.22-4.54,4.99-.4.42-.93.09-.43.82.25.36,2.55,2.59,2.8,2.59.18.01.29-.11.42-.2,1.24-.82,3.61-4.19,4.66-4.68.96-.44,2.05.71,1.44,1.61-1.71,1.49-3.11,3.46-4.97,4.71-.15.22,1.61,2.41,2.18,1.67l8.69-8.72c1.25-1.02,2.93.31,2.15,1.74-2.9,3.22-6.33,6.05-9.1,9.35,2.74,3.2,5.98,6.05,8.92,9.12,1.16,1.23-.36,3.01-1.77,2.19l-8.89-8.93c-.6-.68-2.28,1.29-2.16,1.73.17.64,3.2,2.88,3.68,3.8.42.8-.02,1.72-.91,1.72-1.06,0-3.41-3.47-4.56-3.93-.26,0-2.71,2.37-2.78,2.64-.08.29.03.38.17.59.66.98,3.88,3.2,3.71,4.3-.07.48-.62.97-1.11.96-1.06,0-3.41-3.47-4.56-3.93-.26,0-2.71,2.37-2.78,2.64-.08.29.03.38.17.59.59.88,3.11,2.68,3.43,3.41.33.77.17,1.85-.83,1.85s-3.18-3.08-4.13-3.73c-.21-.14-.3-.25-.59-.17-.26.07-2.64,2.52-2.64,2.78.47,1.18,4.09,3.56,3.91,4.72-.07.48-.62.97-1.11.96-1.06,0-3.41-3.47-4.56-3.93-.48,0-2.65,2.57-3.2,3.04-.07.41,4.37,4.31,4.86,5.05,1.13-.44,3.72-4.14,4.73-4.1.51.02,1.06.39,1.14.93.17,1.17-3.6,3.69-4.11,4.92.58.35,2.18,2.48,2.77,2.35.28-.06.52-.64.96-.59.03.75.48,1.18,1.24,1.04.19-.83-.65-.98-.62-1.86.53-.57,1.7-2.06,2.33-2.33.96-.42,1.8.1,1.6,1.18-.17.94-3.5,3.22-3.95,4.37-.06.36,2.29,1.95,2.29,2.58.2.05.27-.02.41-.1,1.07-.59,3.42-4.19,4.61-4.01.71.11,1.17.98.88,1.62-.44.95-3.35,2.96-4.04,4.05l2.61,2.57c1.43-.67,4.01-4.97,5.78-3.94.36.21,2.25,2.22,2.17,2.6-.18.92-1.2-.53-1.56-.52-.4,0-.67.66-1.14.63-.29.4,1.55,1.24.51,1.86-.92-.15-1.1-1.73-2.06-1.44-.56.17.06.82.09,1.23-.2-.06-.46-.17-.62-.21.14-.53-.34-.35-.41-.41-.06-.05.19-.36-.3-.43-.78-.11-.44.3-.53.43-.05.07-.18.14-.21.21-.01.04-.2.08-.22.32-.03.34.2.43.22.51.06.18.12.27.21.41.12.19.03.54.41.73,1.14.56,1.54-.59,1.45-1.55.19.06.28.15.41.21l.21.62c-.25.6-1.46,1.45-1.45,1.56,0,.23,1.1,1.6,1.34,1.55.98-.66,3.49-3.96,4.41-4.1.68-.11,1.38.59,1.27,1.27-.06.35-1.31,1.73-1.62,2.01-.1.08-.55-.24-.41.41-.13,0-.35.03-.41,0-.22-.11-.56-.98-1.45-.62.06.41-.09.98-.01,1.34.07.33.96-.29.43.73-.45.33-.63.32-.22.94l7.73,7.81c.52,1.82-.9,2.75-2.43,1.6-4.12-3.08-7.1-8.04-11.48-10.9-.27-.18-1.49-1.3-1.68-1.12-.02.59,1.17,1.41,1.24,1.55.22.49-.2.73-.62.42-.17-.12-2.2-2.76-2.25-2.94-.25-.89,1-.46.8-1l-17.48-17.29c-10.41,10.39-20.86,20.74-31.21,31.19-.23.23-.61.27-.63.3-.77-.45-.55-1.54-1.66-1.24.31.4.45.53.62,1.03l.11-.05ZM75.73,419.54c1.15-1.16,3.42-2.84,4.29-4.11.13-.18.3-.28.1-.52l-20.35-20.29-20.39,20.4,20.42,20.42.42-.2,15.5-15.69h.01ZM84.98,451.79c.48,1.37-1.06,1.45-1.03,1.55.21.85,2.69-.86,1.03-1.55Z"/>
    <path class="st0" d="M54.52,281.25h3.83s.31-.29.31-.31v-5.18c0-.78,2.07-.78,2.07,0v5.18s.29.31.31.31h3.52s.31-.29.31-.31v-4.97c0-1.12,2.07-.94,2.07-.21v7.56h-6.22v3.42l9.85,7.97c.18.13.32.29.32.52,0,.71-8.61,9.16-9.52,10.61-.09.36.99,1.55,1.32,1.93,1.9,2.2,4.26,4.29,6.11,6.53.48.58,1,1.02.63,1.75l.83.11-8.93,9.51,2.5,2.3c.25.78-.56.37-.82.83-.39.68.89-.06.97-.07.37-.05.67.26,1.09.08.83-.36,2.97-3.5,3.85-3.64s1.13.47.82,1.24l-3.35,3.17c-.39.46-.21.89.14,1.29l2.8,2.6c1.15-.46,3.33-3.75,4.36-3.76.65,0,.82.29.69.91-.16.81-3.09,3.11-3.68,4.01-.04.25,2.74,3.08,3.24,3.36.52.08,3-3.11,3.68-3.5s1.34-.35,1.33.53c-.01.96-3.38,3.11-3.66,4.31.02.36,2.1,2.14,2.56,2.62.39.4.2.98,1.04.43.95-.63,2.96-3.54,3.93-3.55.64,0,.84.29.68.9-.19.76-2.73,2.84-3.42,3.53-.14.16-.28.43-.23.63.11.51,3.25,3.05,3.78,3.88.73,1.13-.28,2.35-1.45,1.66l-22.15-22.2-.39-.18-22.4,22.38c-1.09.66-2.2-.29-1.67-1.46.44-.96,3.36-2.94,4.03-4.07.09-.53-3.29-3.11-3.61-3.81-.3-.65-.16-1.27.62-1.26,1.06.02,3.06,3.15,4.04,3.66.2.1.21.1.41,0,.27-.14,3.13-3.08,3.1-3.3-.55-.9-3.6-3.2-3.72-3.98-.1-.62.08-.95.73-.94.97.01,2.98,2.93,3.93,3.56.29.19.35.19.67.05.2-.09,2.98-3.04,2.94-3.26-.55-.93-4.4-3.64-3.63-4.7.7-.97,1.54.5,1.85.77.45.4,2.91,2.79,3.11,2.75l3.23-3.38c-.55-.9-3.6-3.2-3.72-3.98-.1-.62.08-.95.73-.94,1.01.01,3.11,3.16,4.17,3.74l3.58-3.43-8.9-9.3,8.9-10.32-9.52-10.61.32-.52,9.65-7.96c.32-.44.34-3.43-.11-3.43h-5.8s-.31-.29-.31-.31v-7.05c0-.94,2.28-1.18,2.28,0v5.28l-.02.02ZM54.43,298.74c1.62,1.8,3.3,3.55,4.84,5.41l.52.3,7.97-9.18-8.33-6.54c-.9,1.12-7.6,5.81-7.79,6.55-.16.62,2.27,2.88,2.79,3.46h0ZM65.29,312.54c-.45.04-.74.03-1.15-.2-1.28-.73-2.78-3.49-4.12-4.37-.2-.13-.36-.25-.62-.21-.97,1.15-1.98,2.34-3.01,3.45-.45.48-.69.57-1.25,1.23s-3.24,3.31-3.09,3.9l7.72,7.59c.93-1.29,7.33-6.69,7.57-7.59.19-.73-2.59-2.73-2.48-3.48.03-.21.52.04.42-.31h.01Z"/>
    <path class="st0" d="M58.87,543.49c-.1-.36-3.88-3.07-3.94-3.32-.11-.5.65-.35.62-.72l-1.64-.1c-.59-.57-5.22-4.01-5.22-4.35.02-1.02,8.58-9.21,9.54-10.81l-9.09-10.3,9.09-9.33c-.51-.47-3.22-3.5-3.58-3.43-.94.6-3.33,3.76-4.2,3.87-.21.03-.47-.1-.67-.18l.03-1.16c1.16-1.14,2.31-2.27,3.54-3.35.2-.17.2-.25.1-.5-.12-.32-3.13-3.28-3.36-3.24-1.01.62-3.14,3.58-4.06,3.84-.45.13-.79-.23-.84-.65-.12-1.06,3.26-3.31,3.74-4.34,0-.49-2.76-2.84-3.25-3.4-.12-.02-1.6,1.23-1.8,1.43-.18.18-.12.47-.21.55-.55.53-2.19,2.25-2.84,1.84-1.07-.66.43-1.84.96-2.38.33-.34.59-.61.9-.95.46-.48,1.48-.89,1.46-1.66,0-.22-2.61-3.17-2.9-3.32-.2-.1-.21-.1-.41,0-.93.48-2.88,3.37-3.74,3.75s-1.33-.39-.83-1.26c.69-1.19,2.91-2.4,3.54-3.72,0-.69-3.66-3.41-4.05-4.25-.41-.88.2-1.49,1.04-1.65l22.8,22.59.62-.21,21.95-21.97c.63-.73,1.76-.33,1.93.57.21,1.13-3.66,3.75-4.11,4.92,0,.67,3.3,3.08,3.64,3.84.38.86-.64,1.59-1.34.92l-3.63-3.61c-.46.61-3.23,2.91-3.23,3.41.45,1.11,3.76,3.36,3.73,4.36-.02.67-.61.79-1.15.53-1.05-.49-3.19-3.75-4.09-3.52-.4.1-2.71,2.66-3.05,3.19,0,.67,3.27,3.05,3.63,3.84.41.87-.44,1.44-1.19,1.03-.6-.33-3.44-3.8-3.77-3.72-1.06,1.14-2.39,2.13-3.23,3.41,0,.67,3.27,3.05,3.63,3.84s-.39,1.41-.93,1.15c-.75-.37-3.36-3.74-3.87-3.83-.58.42-3.46,3-3.58,3.45-.18.68,1.73,1.94,2.18,2.41,1.83,1.89,3.48,3.68,5.35,5.53.19.19,1.35,1.06,1.37,1.15l-9.12,10.64,9.71,10.66c-.96,1.27-10.14,7.86-10.14,8.52v3.21h5.91s.31.29.31.31v5.8c0,.17.29.41.17.99s-.82,1.34-1.48,1.16c-.16-.05-.77-.64-.77-.7v-5.28h-4.14v5.08c0,1.13-2.07,1.04-2.07.41v-5.49h-4.04s-.31.29-.31.31v3.52c0,.1.22.38.2.8-.09,1.94-2.28,1.49-2.28.45v-7.05s.29-.31.31-.31h6.11c-.15-.87.21-2.46,0-3.21h.04ZM52.04,513.76l7.96,8.69,7.54-8.43-7.56-7.72-7.94,7.46h0ZM61.56,540.07c1.78-1.46,4.51-3.3,6.02-4.86.18-.18.41-.33.41-.63,0-.59-7.11-7.51-7.88-8.7l-.59-.07-7.9,8.98c.1.38,4.26,3.1,4.67,3.84.36.66-.28.19-.31.62,1.56-.22,2.69,1.41,3.84,2.28h.29c.04-.32.41-.64.64-.82.26-.21.56-.4.83-.62l-.02-.02Z"/>
    <path class="st0" d="M24.68,383.82c.78.47,1.38,1.24,2.28.83.04.64-.06,1.62-.44,2.15-.28.4-.79.46-1.19.88-1.15,1.2-2.27,4.36-3.33,5.37-.6.57-.96-.08-.95,1.53l-12.74,20.44,18.21,29.46-.45,1.02c-2.61,1.33-5.01,3.62-7.53,5-.23.13-.59.39-.83.41-.86.07-1.42-1.06-1-1.82.33-.59,5.12-3.3,6.1-4.06.37-.29.89-.67.82-1.18-.05-.34-1.32-2.23-1.7-2.2-.93.09-5.35,3.85-6.62,4.37-.89.46-2.07-.03-1.78-1.14.22-.82,6.31-4.43,7.43-5.13.1-.14-1.41-2.66-1.79-2.88-.56-.09-6.38,4.68-7.63,4.74-.89.01-1.23-1.12-.75-1.77l7.25-5.14-12.21-19.69,12.21-19.73.02-.28-7.41-4.81c-.3-1.3.34-1.91,1.62-1.52,1.53.47,4.6,3.39,6.34,4.22.28.14.54.33.88.23.06-.8,1.65-2.11,1.22-2.85l-6.78-4.51c-.95-.87,0-2.39,1.22-1.84l6.94,4.65,1.78-2.89-6.85-4.45c-.95-.91-.31-2.3,1.05-1.89.67.2,3.65,2.39,4.5,2.96.37.25.75.46,1.09.69.29.19.46.48,1.04.83h-.02Z"/>
    <path class="st0" d="M96.79,444.95c.05.01.13.18.21.21.27.42.06.78,1.04.62.94,1,5.09,2.71,5.16,4.04.05.95-1.15,1.1-1.84.82-.32-.13-5.17-3.38-5.4-3.62-.39-.41-.57-1.26-.82-1.76.08-.15.29.03.41.11.04.1.03.24.11.41.06.12.23.15.31.22.84.78,1.2.46.41-.41-.02-.09-.2-.18-.21-.21-.1-.48.15-.52.62-.41v-.02Z"/>
    <path class="st0" d="M94.51,442.47c4.8-8.67,10.8-16.9,15.84-25.51.3-.51.98-1.41.95-1.94-.03-.45-2.37-4.14-2.81-4.87-4.03-6.64-8.29-13.15-12.35-19.77-.69-1.12-2.95-3.87-2.88-5.02.02-.3.07-.55.32-.73l7.83-5.22c1.21-.6,2.15.53,1.54,1.65-.86.73-6.81,4.19-6.96,4.76-.1.41,1.39,2.79,1.7,2.74l6.97-4.66c1.29-.39,1.97,1.14.94,1.98l-6.71,4.38c-.19.32,1.25,3.35,2.03,2.77l6.59-4.41c.91-.25,1.91.17,1.62,1.21-.25.89-6.01,4.1-7.07,4.95l-.31.52,11.86,19.02.16,1.07-11.86,19.03c-.51.91.2.77.75,1.22.3.24.48.39.75.59l-.41,1.04c.9-.39.48,0,.82.32.29.26.82.39.73.92l-1.04-1.03c-.32,1.45-.51.15-.86.03-.29-.11-.7.03-.9-.03-.52-.16-.93-.52-1.45-.62,0,.57-1.52,2.31-1.46,2.58s.87.37,1.12.55c.35.24.48.73.85,1.01.96.74,4.65,2.79,5.09,3.4.27.38.29.95.09,1.36-.83,1.68-4.09-1.81-5.03-2.04-1.17-.29-.86,1.45-2.5-.8-.65-.89-.71-2.25-1.49-.37,1.89.61-.02.86.21,1.96.49.08.85-.68,1.32-.59,1.13.22.12,1.38-.7,1.42-.11-.05-.58-.13-.83-.21-.05-.08-.15-.13-.21-.21-.17-.23-.06-.51-.47-.69-.34-.15-.83-.13-1.19-.35.01.13-.03.31,0,.41-.28-.29-.41-.71-.83-.62.1.61.26,1.05,0,1.66-.07.05-.85-.32-1.03-.41-.12-.39.16-.75.21-1.04.54.15.34-.31.54-.6.18-.27.7-.21.5-.85l.02.04ZM99.9,443.29l-.93-1.24c-.1.28.63,1.55.93,1.24Z"/>
    <path class="st0" d="M76.35,362.14l-15.91,16.1c-.37.3-.9.3-1.27,0l-16.47-16.48c-1.47-.44-8.77.34-9.48-.36-.46-.46-.27-1.72.47-1.82,2.01-.35,7.33.57,8.88-.23,1.21-.62,3.87-3.84,4.99-4.95,3.58-3.52,7.17-7.01,10.77-10.57.25-.26.29-.58.33-.92.36-3-.28-6.66,0-9.74.42-1.39,2.05-1.16,2.26.22.34,2.19.02,6.09.02,8.49,0,.74-.5,1.31.3,1.97l15.57,15.51c1.24.64,2.89,0,4.12,0,.49,0,.94.23,1.44.23.95,0,2.95-.29,3.62.11.73.44.86,1.25.14,1.76-.76.54-7.16,0-8.73.18-.43.05-.74.22-1.06.5h0ZM45.27,358.82c-.18.62-1.71,1.45-1.43,2l15.97,15.76,16.04-15.89-16.05-16.23-14.53,14.37h0Z"/>
    <path class="st0" d="M52.03,479.97c-3.13-3.05-6.25-6.11-9.33-9.22-2.63-.54-6.3.35-8.8-.11-1.26-.23-1.36-2,.21-2.26,2.55-.42,5.94.38,8.58-.12l16.73-16.65c.33-.13.52,0,.8.17.38.23,2.41,2.27,2.92,2.78,4.57,4.49,8.9,9.28,13.55,13.7,2.73.38,5.69-.13,8.4.1,1.85.16,1.98,1.93.57,2.24-2.17.48-6.97-.52-8.75.16-.23.09-1.66,1.46-1.98,1.76-1,.95-2.02,2.25-2.99,3.22-3.77,3.73-7.8,7.32-11.2,11.39-.31,3.03.4,6.81,0,9.75-.19,1.39-1.71,1.17-2.08-.01l-.05-10.11c-.66-1.09-5.55-5.13-5.55-5.95,0-.18.48-.61,0-.94-.26-.18-.72.15-1.04.11h0ZM74.96,470.57c.28-.28,1.02-.83.81-1.17l-15.99-15.94-16.04,16.04,16.07,16.07.27-.05c.46-.46,2.9-3.32,3.18-3.44.34-.15.73.23.79.17l.19-1.16c3.6-3.48,7.17-6.99,10.71-10.53h.01Z"/>
    <path class="st0" d="M113.23,424.09c-.58.89-2.21,5.58-3.09,2.41l7.17-11.5-7.1-11.36c-.37-.35.32-1.11.6-1.16.49-.08,1.47,1.56,1.74,1.95,2.26,3.37,4.18,7,6.42,10.38.08.61-1.48,2.96-1.91,3.67-1.16,1.92-2.64,3.76-3.83,5.6h0Z"/>
    <path class="st0" d="M72.68,304.8c.71-.7.76-2.49.93-2.59s1.09-.11,1.24.09c1.1,1.49-1.68,3.89-1.68,4.13s3.02,2.89,1.57,4.06c-1.27,1.03-1.28-.95-1.46-1.48-.74-2.12-3.83-2.5-4.92-.34-.27.52-.48,2.93-1.53,2.03s.37-3.58,1.36-4.27c-.96-.46-2.37-3.5-1.46-4.16,1.18-.85,1.29,1.43,1.59,1.97.86,1.57,3.1,1.82,4.37.57h-.01Z"/>
    <path class="st0" d="M46.92,525.22c-.79.79-.57,2.83-1.62,2.84-1.72.01-.07-3.82.92-4.28-.64-.85-2.48-3.29-1.35-4.24s1.31,1.34,1.52,1.83c.82,1.89,3.4,2.04,4.61.37.45-.63.72-3.57,1.88-2.09,1.16,1.48-1.51,3.78-1.45,4.13.03.2.78.75.99,1.09.32.52,1.05,2.47.46,2.88-1.35.95-1.42-1.6-1.91-2.26-.9-1.21-2.99-1.33-4.04-.27h-.01Z"/>
    <path class="st0" d="M51.22,306.72c.99.18,2.27,3.29,1.45,3.86-1.2.84-1.2-.79-1.42-1.3-1.11-2.63-3.98-2.93-5.12-.26-.32.74-.21,2.13-1.35,1.55-1.63-.82,1.25-3.89,1.25-4.15,0-.31-1.03-1.19-1.29-1.82-.3-.72-.87-2.45.35-2.44,1.07,0,.79,1.76,1.55,2.61.81.9,2.2,1.08,3.26.56.15-.08,1.35-1,1.4-1.07.1-.17-.21-3.1,1.37-1.99.85.6-.58,3.73-1.46,4.16v.29h0Z"/>
    <path class="st0" d="M73.4,523.89s.59.32.79.6c.6.83,1.66,3.65.11,3.55-1.06-.07-.48-2.62-2.26-3.32s-3.1.03-3.74,1.67c-.3.76.03,2.02-1.35,1.35-1.01-.49.29-2.9.83-3.53.27-.32.75-.18.62-.61-.93-.49-2.77-3.82-1.3-4.22,1.23-.34,1.01,1.08,1.25,1.78.76,2.15,3.95,2.34,4.92.26.28-.6.34-2.5,1.35-1.98,1.27.66-.25,3.61-1.24,4.16-.04.09-.02.19.01.28h0Z"/>
    <path class="st0" d="M1.08,416.13c-.08-.06-.45-1.05-.4-1.28.06-.31,1.63-2.72,1.95-3.25,1.77-2.9,3.73-5.7,5.47-8.62.48-.53,1.57-.47,1.46.4l-6.9,11.17c-.31.34.14.96-.03,1.19-.13.17-1.42.48-1.55.39h0Z"/>
    <path class="st0" d="M9.05,425.76c.98,1.56-.09,2.32-.96,1.43-.15-.15-1.79-2.74-1.83-2.9-.11-.45.54-.86.39-1.08-.04-.05-.97-.33-1.17-.49-1.37-1.09-2.46-4.33-3.78-5.67-.2-.76,1.02-1.22,1.53-.68,1.57,2.8,3.45,5.42,5.09,8.17.27.45.48.82.74,1.23h-.01Z"/>
    <path class="st0" d="M48.66,526.84c1.56-.24,1.88,2.36.14,2.46-1.32.07-1.65-2.23-.14-2.46Z"/>
    <path class="st0" d="M70.2,300.97c1.57-.49,2.37,1.47,1.05,2.09-1.78.84-2.35-1.68-1.05-2.09Z"/>
    <path class="st0" d="M48.24,309.67c1.57-.46,2.16,2.01.69,2.36s-2.03-1.97-.69-2.36Z"/>
    <path class="st0" d="M70.12,529.02c-1.13-.93.11-2.49,1.12-2.07,1.86.77.27,3.21-1.12,2.07Z"/>
    <path class="st0" d="M69.91,309.9c.86-.82,2.59.36,1.83,1.51-1.1,1.65-3.06-.33-1.83-1.51Z"/>
    <path class="st0" d="M47.94,520.13c-.82-.82.1-2.73,1.52-1.83,1.55.99-.32,3.02-1.52,1.83Z"/>
    <path class="st0" d="M48.02,300.97c1.93-.66,2.26,1.83.96,2.21-1.58.46-1.96-1.86-.96-2.21Z"/>
    <path class="st0" d="M71.71,518.53c.31.5-.76.98-1.13,1.23-1.02.68-1-1.46.2-1.47.16,0,.9.19.93.24Z"/>
    <path class="st0" d="M60.73,414.08h4.97s-.08.62.03.8c.12.19,1.52.34,1.63.24l-.21-1.03c.82.11,2.75-.44,2.91.74.12.94-.47,1.39-1.36,1.35-.49-.03-.75-.43-1.02-.43-.24,0-.56.37-1.03.43-.94.12-4.45-.51-4.79-.02-.18.26-.05.9-.32,1.34-.15.24-.81.55-.81.64v6.73c0,.1-1.19.77-1.77.21-.9-.88.18-7.34-.13-8.89-.34-.54-7.06.21-8.36-.03-1.08-.2-1.38-1.84-.21-2.06,1.95-.37,4.97.26,7.05,0,.52-.06,1.44-1.08,1.54-1.57.14-.73-.2-1.38-.21-2.06-.02-.96-.15-4.84.23-5.38.45-.63,1.74-.44,1.84.4v8.59h.02Z"/>
    <path class="st0" d="M52.52,419.12c1.78-1.8,4.69.45,3.34,2.61-1.75,2.79-5.39-.54-3.34-2.61Z"/>
    <path class="st0" d="M63.91,419.12c2.14-2.16,5.18,1.36,2.84,3.15s-4.48-1.5-2.84-3.15Z"/>
    <path class="st0" d="M64.82,407.49c3.08-.71,3.68,3.54,1.15,4.05-2.94.6-3.54-3.5-1.15-4.05Z"/>
    <path class="st0" d="M52.24,408.27c.11-.08.91.35,1.03.21.19-.21-.45-1.44,1.51-.99,2.84.65.94,5.61-1.92,3.78-.84-.54-1.19-2.6-.63-3h.01Z"/>
    <path class="st0" d="M62.32,357.99c2.89,2.89-.92,8.09-4.59,5.53-4.36-3.05,1-9.12,4.59-5.53Z"/>
    <path class="st0" d="M59.24,465.92c4.7-.65,5.61,6.7.96,7.2-4.63.5-5.49-6.57-.96-7.2Z"/>
  </g>
</svg>